<!--?xml version="1.0" standalone="no"?-->
              <svg id="sw-js-blob-svg" viewBox="0 0 100 100" xmlns="http://www.w3.org/2000/svg" version="1.1">
                    <defs> 
                        <linearGradient id="sw-gradient" x1="0" x2="1" y1="1" y2="0">
                            <stop id="stop1" stop-color="rgba(248, 117, 55, 1)" offset="0%"></stop>
                            <stop id="stop2" stop-color="rgba(251, 168, 31, 1)" offset="100%"></stop>
                        </linearGradient>
                    </defs>
                <path fill="url(#sw-gradient)" d="M20.7,-33.1C27.4,-27.9,34,-23.2,38.5,-16.6C43,-10,45.6,-1.5,44.4,6.3C43.1,14.2,38.2,21.5,32.2,27.2C26.2,32.9,19.1,37,11.3,40C3.5,42.9,-5,44.6,-12.7,42.6C-20.4,40.7,-27.2,35.1,-32.5,28.4C-37.7,21.8,-41.5,14.1,-43.3,5.8C-45,-2.5,-44.8,-11.4,-40.9,-18.1C-37,-24.8,-29.3,-29.2,-21.8,-34.1C-14.4,-39,-7.2,-44.4,-0.1,-44.3C7,-44.1,14,-38.3,20.7,-33.1Z" width="100%" height="100%" transform="translate(50 50)" stroke-width="0" style="transition: all 0.3s ease 0s;"></path>
              </svg>