<!--?xml version="1.0" standalone="no"?-->
              <svg id="sw-js-blob-svg" viewBox="0 0 100 100" xmlns="http://www.w3.org/2000/svg" version="1.1">
                    <defs> 
                        <linearGradient id="sw-gradient" x1="0" x2="1" y1="1" y2="0">
                            <stop id="stop1" stop-color="rgba(248, 117, 55, 1)" offset="0%"></stop>
                            <stop id="stop2" stop-color="rgba(255, 173.494, 38.961, 1)" offset="100%"></stop>
                        </linearGradient>
                    </defs>
                <path fill="url(#sw-gradient)" d="M20.7,-31.4C26.8,-28.3,31.8,-22.5,35.8,-15.8C39.9,-9,43,-1.2,42,6C40.9,13.2,35.7,19.8,30.1,25.9C24.6,32.1,18.7,37.7,12,38.8C5.3,39.8,-2.1,36.2,-10.2,34.1C-18.2,32,-26.8,31.4,-31.3,26.8C-35.8,22.2,-36,13.7,-37.4,5.3C-38.8,-3.2,-41.2,-11.6,-39.4,-19C-37.5,-26.3,-31.3,-32.7,-24,-35.2C-16.7,-37.8,-8.4,-36.4,-0.5,-35.6C7.3,-34.8,14.6,-34.4,20.7,-31.4Z" width="100%" height="100%" transform="translate(50 50)" stroke-width="0" style="transition: all 0.3s ease 0s;" stroke="url(#sw-gradient)"></path>
              </svg>