<!--?xml version="1.0" standalone="no"?-->
              <svg id="sw-js-blob-svg" viewBox="0 0 100 100" xmlns="http://www.w3.org/2000/svg" version="1.1">
                    <defs> 
                        <linearGradient id="sw-gradient" x1="0" x2="1" y1="1" y2="0">
                            <stop id="stop1" stop-color="rgba(248, 117, 55, 1)" offset="0%"></stop>
                            <stop id="stop2" stop-color="rgba(251, 168, 31, 1)" offset="100%"></stop>
                        </linearGradient>
                    </defs>
                <path fill="url(#sw-gradient)" d="M21.4,-31C26.9,-25.3,30.2,-18.1,32.9,-10.5C35.5,-3,37.6,5,34.8,10.6C32,16.3,24.4,19.7,17.8,23C11.2,26.3,5.6,29.4,-1.6,31.6C-8.7,33.7,-17.5,34.9,-21.6,30.8C-25.7,26.7,-25.2,17.3,-25.9,9.7C-26.7,2,-28.8,-4,-28,-9.9C-27.2,-15.8,-23.5,-21.5,-18.3,-27.3C-13.2,-33.1,-6.6,-38.9,0.6,-39.8C7.9,-40.7,15.8,-36.6,21.4,-31Z" width="100%" height="100%" transform="translate(50 50)" stroke-width="0" style="transition: all 0.3s ease 0s;"></path>
              </svg>